<?xml version="1.0" encoding="UTF-8" standalone="no"?><svg xmlns="http://www.w3.org/2000/svg" xmlns:xlink="http://www.w3.org/1999/xlink" contentScriptType="application/ecmascript" contentStyleType="text/css" height="397px" preserveAspectRatio="none" style="width:631px;height:397px;" version="1.1" viewBox="0 0 631 397" width="631px" zoomAndPan="magnify"><defs><filter height="300%" id="f1g3u7ihn7s9t" width="300%" x="-1" y="-1"><feGaussianBlur result="blurOut" stdDeviation="2.0"/><feColorMatrix in="blurOut" result="blurOut2" type="matrix" values="0 0 0 0 0 0 0 0 0 0 0 0 0 0 0 0 0 0 .4 0"/><feOffset dx="4.0" dy="4.0" in="blurOut2" result="blurOut3"/><feBlend in="SourceGraphic" in2="blurOut3" mode="normal"/></filter></defs><g><line style="stroke: #A80036; stroke-width: 1.0; stroke-dasharray: 5.0,5.0;" x1="53" x2="53" y1="86.2969" y2="310.2266"/><line style="stroke: #A80036; stroke-width: 1.0; stroke-dasharray: 5.0,5.0;" x1="129" x2="129" y1="86.2969" y2="310.2266"/><line style="stroke: #A80036; stroke-width: 1.0; stroke-dasharray: 5.0,5.0;" x1="196" x2="196" y1="86.2969" y2="310.2266"/><line style="stroke: #A80036; stroke-width: 1.0; stroke-dasharray: 5.0,5.0;" x1="270" x2="270" y1="86.2969" y2="310.2266"/><line style="stroke: #A80036; stroke-width: 1.0; stroke-dasharray: 5.0,5.0;" x1="330" x2="330" y1="86.2969" y2="310.2266"/><line style="stroke: #A80036; stroke-width: 1.0; stroke-dasharray: 5.0,5.0;" x1="398" x2="398" y1="86.2969" y2="310.2266"/><line style="stroke: #A80036; stroke-width: 1.0; stroke-dasharray: 5.0,5.0;" x1="493" x2="493" y1="86.2969" y2="310.2266"/><line style="stroke: #A80036; stroke-width: 1.0; stroke-dasharray: 5.0,5.0;" x1="585" x2="585" y1="86.2969" y2="310.2266"/><rect fill="#FEFECE" filter="url(#f1g3u7ihn7s9t)" height="30.2969" style="stroke: #A80036; stroke-width: 1.5;" width="86" x="8" y="51"/><text fill="#000000" font-family="sans-serif" font-size="14" lengthAdjust="spacingAndGlyphs" textLength="72" x="15" y="70.9951">Participant</text><rect fill="#FEFECE" filter="url(#f1g3u7ihn7s9t)" height="30.2969" style="stroke: #A80036; stroke-width: 1.5;" width="86" x="8" y="309.2266"/><text fill="#000000" font-family="sans-serif" font-size="14" lengthAdjust="spacingAndGlyphs" textLength="72" x="15" y="329.2217">Participant</text><text fill="#000000" font-family="sans-serif" font-size="14" lengthAdjust="spacingAndGlyphs" textLength="36" x="108" y="82.9951">Actor</text><ellipse cx="129" cy="13" fill="#FEFECE" filter="url(#f1g3u7ihn7s9t)" rx="8" ry="8" style="stroke: #A80036; stroke-width: 2.0;"/><path d="M129,21 L129,48 M116,29 L142,29 M129,48 L116,63 M129,48 L142,63 " fill="none" filter="url(#f1g3u7ihn7s9t)" style="stroke: #A80036; stroke-width: 2.0;"/><text fill="#000000" font-family="sans-serif" font-size="14" lengthAdjust="spacingAndGlyphs" textLength="36" x="108" y="322.2217">Actor</text><ellipse cx="129" cy="335.5234" fill="#FEFECE" filter="url(#f1g3u7ihn7s9t)" rx="8" ry="8" style="stroke: #A80036; stroke-width: 2.0;"/><path d="M129,343.5234 L129,370.5234 M116,351.5234 L142,351.5234 M129,370.5234 L116,385.5234 M129,370.5234 L142,385.5234 " fill="none" filter="url(#f1g3u7ihn7s9t)" style="stroke: #A80036; stroke-width: 2.0;"/><text fill="#000000" font-family="sans-serif" font-size="14" lengthAdjust="spacingAndGlyphs" textLength="66" x="160" y="82.9951">Boundary</text><path d="M175.5,42 L175.5,66 M175.5,54 L192.5,54 " fill="none" filter="url(#f1g3u7ihn7s9t)" style="stroke: #A80036; stroke-width: 2.0;"/><ellipse cx="204.5" cy="54" fill="#FEFECE" filter="url(#f1g3u7ihn7s9t)" rx="12" ry="12" style="stroke: #A80036; stroke-width: 2.0;"/><text fill="#000000" font-family="sans-serif" font-size="14" lengthAdjust="spacingAndGlyphs" textLength="66" x="160" y="322.2217">Boundary</text><path d="M175.5,329.5234 L175.5,353.5234 M175.5,341.5234 L192.5,341.5234 " fill="none" filter="url(#f1g3u7ihn7s9t)" style="stroke: #A80036; stroke-width: 2.0;"/><ellipse cx="204.5" cy="341.5234" fill="#FEFECE" filter="url(#f1g3u7ihn7s9t)" rx="12" ry="12" style="stroke: #A80036; stroke-width: 2.0;"/><text fill="#000000" font-family="sans-serif" font-size="14" lengthAdjust="spacingAndGlyphs" textLength="50" x="242" y="82.9951">Control</text><ellipse cx="270" cy="54" fill="#FEFECE" filter="url(#f1g3u7ihn7s9t)" rx="12" ry="12" style="stroke: #A80036; stroke-width: 2.0;"/><polygon fill="#A80036" points="266,42,272,37,270,42,272,47,266,42" style="stroke: #A80036; stroke-width: 1.0;"/><text fill="#000000" font-family="sans-serif" font-size="14" lengthAdjust="spacingAndGlyphs" textLength="50" x="242" y="322.2217">Control</text><ellipse cx="270" cy="341.5234" fill="#FEFECE" filter="url(#f1g3u7ihn7s9t)" rx="12" ry="12" style="stroke: #A80036; stroke-width: 2.0;"/><polygon fill="#A80036" points="266,329.5234,272,324.5234,270,329.5234,272,334.5234,266,329.5234" style="stroke: #A80036; stroke-width: 1.0;"/><text fill="#000000" font-family="sans-serif" font-size="14" lengthAdjust="spacingAndGlyphs" textLength="38" x="308" y="82.9951">Entity</text><ellipse cx="330" cy="54" fill="#FEFECE" filter="url(#f1g3u7ihn7s9t)" rx="12" ry="12" style="stroke: #A80036; stroke-width: 2.0;"/><line style="stroke: #A80036; stroke-width: 2.0;" x1="318" x2="342" y1="68" y2="68"/><text fill="#000000" font-family="sans-serif" font-size="14" lengthAdjust="spacingAndGlyphs" textLength="38" x="308" y="322.2217">Entity</text><ellipse cx="330" cy="341.5234" fill="#FEFECE" filter="url(#f1g3u7ihn7s9t)" rx="12" ry="12" style="stroke: #A80036; stroke-width: 2.0;"/><line style="stroke: #A80036; stroke-width: 2.0;" x1="318" x2="342" y1="355.5234" y2="355.5234"/><text fill="#000000" font-family="sans-serif" font-size="14" lengthAdjust="spacingAndGlyphs" textLength="66" x="362" y="82.9951">Database</text><path d="M380,34 C380,24 398,24 398,24 C398,24 416,24 416,34 L416,60 C416,70 398,70 398,70 C398,70 380,70 380,60 L380,34 " fill="#FEFECE" filter="url(#f1g3u7ihn7s9t)" style="stroke: #000000; stroke-width: 1.5;"/><path d="M380,34 C380,44 398,44 398,44 C398,44 416,44 416,34 " fill="none" style="stroke: #000000; stroke-width: 1.5;"/><text fill="#000000" font-family="sans-serif" font-size="14" lengthAdjust="spacingAndGlyphs" textLength="66" x="362" y="322.2217">Database</text><path d="M380,335.5234 C380,325.5234 398,325.5234 398,325.5234 C398,325.5234 416,325.5234 416,335.5234 L416,361.5234 C416,371.5234 398,371.5234 398,371.5234 C398,371.5234 380,371.5234 380,361.5234 L380,335.5234 " fill="#FEFECE" filter="url(#f1g3u7ihn7s9t)" style="stroke: #000000; stroke-width: 1.5;"/><path d="M380,335.5234 C380,345.5234 398,345.5234 398,345.5234 C398,345.5234 416,345.5234 416,335.5234 " fill="none" style="stroke: #000000; stroke-width: 1.5;"/><rect fill="#FEFECE" filter="url(#f1g3u7ihn7s9t)" height="30.2969" style="stroke: #A80036; stroke-width: 1.5;" width="90" x="448" y="47"/><rect fill="#FEFECE" filter="url(#f1g3u7ihn7s9t)" height="30.2969" style="stroke: #A80036; stroke-width: 1.5;" width="90" x="444" y="51"/><text fill="#000000" font-family="sans-serif" font-size="14" lengthAdjust="spacingAndGlyphs" textLength="76" x="451" y="70.9951">Collections</text><rect fill="#FEFECE" filter="url(#f1g3u7ihn7s9t)" height="30.2969" style="stroke: #A80036; stroke-width: 1.5;" width="90" x="448" y="309.2266"/><rect fill="#FEFECE" filter="url(#f1g3u7ihn7s9t)" height="30.2969" style="stroke: #A80036; stroke-width: 1.5;" width="90" x="444" y="313.2266"/><text fill="#000000" font-family="sans-serif" font-size="14" lengthAdjust="spacingAndGlyphs" textLength="76" x="451" y="333.2217">Collections</text><path d="M557,60 L614,60 C619,60 619,73.1484 619,73.1484 C619,73.1484 619,86.2969 614,86.2969 L557,86.2969 C552,86.2969 552,73.1484 552,73.1484 C552,73.1484 552,60 557,60 " fill="#FEFECE" filter="url(#f1g3u7ihn7s9t)" style="stroke: #A80036; stroke-width: 2.0;"/><path d="M614,60 C609,60 609,73.1484 609,73.1484 C609,86.2969 614,86.2969 614,86.2969 " fill="none" style="stroke: #A80036; stroke-width: 2.0;"/><text fill="#000000" font-family="sans-serif" font-size="14" lengthAdjust="spacingAndGlyphs" textLength="47" x="557" y="77.9951">Queue</text><path d="M557,309.2266 L614,309.2266 C619,309.2266 619,322.375 619,322.375 C619,322.375 619,335.5234 614,335.5234 L557,335.5234 C552,335.5234 552,322.375 552,322.375 C552,322.375 552,309.2266 557,309.2266 " fill="#FEFECE" filter="url(#f1g3u7ihn7s9t)" style="stroke: #A80036; stroke-width: 2.0;"/><path d="M614,309.2266 C609,309.2266 609,322.375 609,322.375 C609,335.5234 614,335.5234 614,335.5234 " fill="none" style="stroke: #A80036; stroke-width: 2.0;"/><text fill="#000000" font-family="sans-serif" font-size="14" lengthAdjust="spacingAndGlyphs" textLength="47" x="557" y="327.2217">Queue</text><polygon fill="#A80036" points="117,113.4297,127,117.4297,117,121.4297,121,117.4297" style="stroke: #A80036; stroke-width: 1.0;"/><line style="stroke: #A80036; stroke-width: 1.0;" x1="53" x2="123" y1="117.4297" y2="117.4297"/><text fill="#000000" font-family="sans-serif" font-size="13" lengthAdjust="spacingAndGlyphs" textLength="52" x="60" y="112.3638">To actor</text><polygon fill="#A80036" points="184,142.5625,194,146.5625,184,150.5625,188,146.5625" style="stroke: #A80036; stroke-width: 1.0;"/><line style="stroke: #A80036; stroke-width: 1.0;" x1="53" x2="190" y1="146.5625" y2="146.5625"/><text fill="#000000" font-family="sans-serif" font-size="13" lengthAdjust="spacingAndGlyphs" textLength="79" x="60" y="141.4966">To boundary</text><polygon fill="#A80036" points="258,171.6953,268,175.6953,258,179.6953,262,175.6953" style="stroke: #A80036; stroke-width: 1.0;"/><line style="stroke: #A80036; stroke-width: 1.0;" x1="53" x2="264" y1="175.6953" y2="175.6953"/><text fill="#000000" font-family="sans-serif" font-size="13" lengthAdjust="spacingAndGlyphs" textLength="63" x="60" y="170.6294">To control</text><polygon fill="#A80036" points="318,200.8281,328,204.8281,318,208.8281,322,204.8281" style="stroke: #A80036; stroke-width: 1.0;"/><line style="stroke: #A80036; stroke-width: 1.0;" x1="53" x2="324" y1="204.8281" y2="204.8281"/><text fill="#000000" font-family="sans-serif" font-size="13" lengthAdjust="spacingAndGlyphs" textLength="55" x="60" y="199.7622">To entity</text><polygon fill="#A80036" points="386,229.9609,396,233.9609,386,237.9609,390,233.9609" style="stroke: #A80036; stroke-width: 1.0;"/><line style="stroke: #A80036; stroke-width: 1.0;" x1="53" x2="392" y1="233.9609" y2="233.9609"/><text fill="#000000" font-family="sans-serif" font-size="13" lengthAdjust="spacingAndGlyphs" textLength="79" x="60" y="228.895">To database</text><polygon fill="#A80036" points="481,259.0938,491,263.0938,481,267.0938,485,263.0938" style="stroke: #A80036; stroke-width: 1.0;"/><line style="stroke: #A80036; stroke-width: 1.0;" x1="53" x2="487" y1="263.0938" y2="263.0938"/><text fill="#000000" font-family="sans-serif" font-size="13" lengthAdjust="spacingAndGlyphs" textLength="86" x="60" y="258.0278">To collections</text><polygon fill="#A80036" points="573.5,288.2266,583.5,292.2266,573.5,296.2266,577.5,292.2266" style="stroke: #A80036; stroke-width: 1.0;"/><line style="stroke: #A80036; stroke-width: 1.0;" x1="53" x2="579.5" y1="292.2266" y2="292.2266"/><text fill="#000000" font-family="sans-serif" font-size="13" lengthAdjust="spacingAndGlyphs" textLength="59" x="60" y="287.1606">To queue</text><!--MD5=[b1fb4d77deecbfb5bf3372d05cae2d29]
@startuml
participant Participant as Foo
actor       Actor       as Foo1
boundary    Boundary    as Foo2
control     Control     as Foo3
entity      Entity      as Foo4
database    Database    as Foo5
collections Collections as Foo6
queue       Queue       as Foo7
Foo -> Foo1 : To actor 
Foo -> Foo2 : To boundary
Foo -> Foo3 : To control
Foo -> Foo4 : To entity
Foo -> Foo5 : To database
Foo -> Foo6 : To collections
Foo -> Foo7: To queue
@enduml

PlantUML version 1.2020.06(Sun Apr 05 12:38:32 GMT 2020)
(GPL source distribution)
Java Runtime: OpenJDK Runtime Environment
JVM: OpenJDK 64-Bit Server VM
Java Version: 14-ea+33
Operating System: Linux
Default Encoding: UTF-8
Language: en
Country: US
--></g></svg>