<?xml version="1.0" encoding="UTF-8" standalone="no"?><svg xmlns="http://www.w3.org/2000/svg" xmlns:xlink="http://www.w3.org/1999/xlink" contentScriptType="application/ecmascript" contentStyleType="text/css" height="734px" preserveAspectRatio="none" style="width:309px;height:734px;" version="1.1" viewBox="0 0 309 734" width="309px" zoomAndPan="magnify"><defs/><g><text fill="#000000" font-family="sans-serif" font-size="18" lengthAdjust="spacingAndGlyphs" textLength="225" x="45.5" y="16.708">DCP - Cahier des charges</text><text fill="#000000" font-family="sans-serif" font-size="18" lengthAdjust="spacingAndGlyphs" textLength="54" x="24.5" y="37.6611">MOA :</text><text fill="#000000" font-family="sans-serif" font-size="18" font-weight="bold" lengthAdjust="spacingAndGlyphs" textLength="50" x="84.5" y="37.6611">obde</text><text fill="#000000" font-family="sans-serif" font-size="18" lengthAdjust="spacingAndGlyphs" textLength="65" x="140.5" y="37.6611">/ MOE :</text><text fill="#000000" font-family="sans-serif" font-size="18" font-weight="bold" lengthAdjust="spacingAndGlyphs" textLength="86" x="211.5" y="37.6611">teamflat</text><!--MD5=[230c8b93044a8b32754c79e4598c3632]
class role--><rect fill="#FEFECE" height="48" id="role" style="stroke: #A80036; stroke-width: 1.5;" width="59" x="61.6874" y="343.9063"/><ellipse cx="76.6874" cy="359.9063" fill="#ADD1B2" rx="11" ry="11" style="stroke: #A80036; stroke-width: 1.0;"/><path d="M79.6562,365.5469 Q79.078,365.8438 78.4374,365.9844 Q77.7968,366.1406 77.0937,366.1406 Q74.5937,366.1406 73.2655,364.5 Q71.953,362.8438 71.953,359.7188 Q71.953,356.5938 73.2655,354.9375 Q74.5937,353.2813 77.0937,353.2813 Q77.7968,353.2813 78.4374,353.4375 Q79.0937,353.5938 79.6562,353.8906 L79.6562,356.6094 Q79.0312,356.0313 78.4374,355.7656 Q77.8437,355.4844 77.2187,355.4844 Q75.8749,355.4844 75.1874,356.5625 Q74.4999,357.625 74.4999,359.7188 Q74.4999,361.8125 75.1874,362.8906 Q75.8749,363.9531 77.2187,363.9531 Q77.8437,363.9531 78.4374,363.6875 Q79.0312,363.4063 79.6562,362.8281 L79.6562,365.5469 Z "/><text fill="#000000" font-family="sans-serif" font-size="12" lengthAdjust="spacingAndGlyphs" textLength="27" x="90.6874" y="364.0605">Role</text><line style="stroke: #A80036; stroke-width: 1.5;" x1="62.6874" x2="119.6874" y1="375.9063" y2="375.9063"/><line style="stroke: #A80036; stroke-width: 1.5;" x1="62.6874" x2="119.6874" y1="383.9063" y2="383.9063"/><!--MD5=[c33a00faa90a791675b6f373e096703b]
class adherent--><rect fill="#FEFECE" height="48" id="adherent" style="stroke: #A80036; stroke-width: 1.5;" width="90" x="207.6874" y="288.9063"/><ellipse cx="222.6874" cy="304.9063" fill="#ADD1B2" rx="11" ry="11" style="stroke: #A80036; stroke-width: 1.0;"/><path d="M225.6562,310.5469 Q225.078,310.8438 224.4374,310.9844 Q223.7968,311.1406 223.0937,311.1406 Q220.5937,311.1406 219.2655,309.5 Q217.953,307.8438 217.953,304.7188 Q217.953,301.5938 219.2655,299.9375 Q220.5937,298.2813 223.0937,298.2813 Q223.7968,298.2813 224.4374,298.4375 Q225.0937,298.5938 225.6562,298.8906 L225.6562,301.6094 Q225.0312,301.0313 224.4374,300.7656 Q223.8437,300.4844 223.2187,300.4844 Q221.8749,300.4844 221.1874,301.5625 Q220.4999,302.625 220.4999,304.7188 Q220.4999,306.8125 221.1874,307.8906 Q221.8749,308.9531 223.2187,308.9531 Q223.8437,308.9531 224.4374,308.6875 Q225.0312,308.4063 225.6562,307.8281 L225.6562,310.5469 Z "/><text fill="#000000" font-family="sans-serif" font-size="12" lengthAdjust="spacingAndGlyphs" textLength="58" x="236.6874" y="309.0605">Adherent</text><line style="stroke: #A80036; stroke-width: 1.5;" x1="208.6874" x2="296.6874" y1="320.9063" y2="320.9063"/><line style="stroke: #A80036; stroke-width: 1.5;" x1="208.6874" x2="296.6874" y1="328.9063" y2="328.9063"/><!--MD5=[e62bc3205102eabd920d5fb8d74b4fe0]
class materiel--><rect fill="#FEFECE" height="48" id="materiel" style="stroke: #A80036; stroke-width: 1.5;" width="82" x="50.1874" y="675.9063"/><ellipse cx="65.1874" cy="691.9063" fill="#ADD1B2" rx="11" ry="11" style="stroke: #A80036; stroke-width: 1.0;"/><path d="M68.1562,697.5469 Q67.578,697.8438 66.9374,697.9844 Q66.2968,698.1406 65.5937,698.1406 Q63.0937,698.1406 61.7655,696.5 Q60.453,694.8438 60.453,691.7188 Q60.453,688.5938 61.7655,686.9375 Q63.0937,685.2813 65.5937,685.2813 Q66.2968,685.2813 66.9374,685.4375 Q67.5937,685.5938 68.1562,685.8906 L68.1562,688.6094 Q67.5312,688.0313 66.9374,687.7656 Q66.3437,687.4844 65.7187,687.4844 Q64.3749,687.4844 63.6874,688.5625 Q62.9999,689.625 62.9999,691.7188 Q62.9999,693.8125 63.6874,694.8906 Q64.3749,695.9531 65.7187,695.9531 Q66.3437,695.9531 66.9374,695.6875 Q67.5312,695.4063 68.1562,694.8281 L68.1562,697.5469 Z "/><text fill="#000000" font-family="sans-serif" font-size="12" lengthAdjust="spacingAndGlyphs" textLength="50" x="79.1874" y="696.0605">Materiel</text><line style="stroke: #A80036; stroke-width: 1.5;" x1="51.1874" x2="131.1874" y1="707.9063" y2="707.9063"/><line style="stroke: #A80036; stroke-width: 1.5;" x1="51.1874" x2="131.1874" y1="715.9063" y2="715.9063"/><!--MD5=[857a356b9e77f83de603e0318f36b735]
class type--><rect fill="#FEFECE" height="48" id="type" style="stroke: #A80036; stroke-width: 1.5;" width="111" x="35.6874" y="592.9063"/><ellipse cx="50.6874" cy="608.9063" fill="#ADD1B2" rx="11" ry="11" style="stroke: #A80036; stroke-width: 1.0;"/><path d="M53.6562,614.5469 Q53.078,614.8438 52.4374,614.9844 Q51.7968,615.1406 51.0937,615.1406 Q48.5937,615.1406 47.2655,613.5 Q45.953,611.8438 45.953,608.7188 Q45.953,605.5938 47.2655,603.9375 Q48.5937,602.2813 51.0937,602.2813 Q51.7968,602.2813 52.4374,602.4375 Q53.0937,602.5938 53.6562,602.8906 L53.6562,605.6094 Q53.0312,605.0313 52.4374,604.7656 Q51.8437,604.4844 51.2187,604.4844 Q49.8749,604.4844 49.1874,605.5625 Q48.4999,606.625 48.4999,608.7188 Q48.4999,610.8125 49.1874,611.8906 Q49.8749,612.9531 51.2187,612.9531 Q51.8437,612.9531 52.4374,612.6875 Q53.0312,612.4063 53.6562,611.8281 L53.6562,614.5469 Z "/><text fill="#000000" font-family="sans-serif" font-size="12" lengthAdjust="spacingAndGlyphs" textLength="79" x="64.6874" y="613.0605">TypeMateriel</text><line style="stroke: #A80036; stroke-width: 1.5;" x1="36.6874" x2="145.6874" y1="624.9063" y2="624.9063"/><line style="stroke: #A80036; stroke-width: 1.5;" x1="36.6874" x2="145.6874" y1="632.9063" y2="632.9063"/><!--MD5=[b7cab423eda1e24b0960ecf72266dcd5]
class evenement--><rect fill="#FEFECE" height="48" id="evenement" style="stroke: #A80036; stroke-width: 1.5;" width="102" x="40.1874" y="132.9063"/><ellipse cx="55.1874" cy="148.9063" fill="#ADD1B2" rx="11" ry="11" style="stroke: #A80036; stroke-width: 1.0;"/><path d="M58.1562,154.5469 Q57.578,154.8438 56.9374,154.9844 Q56.2968,155.1406 55.5937,155.1406 Q53.0937,155.1406 51.7655,153.5 Q50.453,151.8438 50.453,148.7188 Q50.453,145.5938 51.7655,143.9375 Q53.0937,142.2813 55.5937,142.2813 Q56.2968,142.2813 56.9374,142.4375 Q57.5937,142.5938 58.1562,142.8906 L58.1562,145.6094 Q57.5312,145.0313 56.9374,144.7656 Q56.3437,144.4844 55.7187,144.4844 Q54.3749,144.4844 53.6874,145.5625 Q52.9999,146.625 52.9999,148.7188 Q52.9999,150.8125 53.6874,151.8906 Q54.3749,152.9531 55.7187,152.9531 Q56.3437,152.9531 56.9374,152.6875 Q57.5312,152.4063 58.1562,151.8281 L58.1562,154.5469 Z "/><text fill="#000000" font-family="sans-serif" font-size="12" lengthAdjust="spacingAndGlyphs" textLength="70" x="69.1874" y="153.0605">Evenement</text><line style="stroke: #A80036; stroke-width: 1.5;" x1="41.1874" x2="141.1874" y1="164.9063" y2="164.9063"/><line style="stroke: #A80036; stroke-width: 1.5;" x1="41.1874" x2="141.1874" y1="172.9063" y2="172.9063"/><!--MD5=[f407e5f264e58ed587023e2ec1f341e9]
class planning--><rect fill="#FEFECE" height="48" id="planning" style="stroke: #A80036; stroke-width: 1.5;" width="86" x="209.6874" y="183.9063"/><ellipse cx="224.6874" cy="199.9063" fill="#ADD1B2" rx="11" ry="11" style="stroke: #A80036; stroke-width: 1.0;"/><path d="M227.6562,205.5469 Q227.078,205.8438 226.4374,205.9844 Q225.7968,206.1406 225.0937,206.1406 Q222.5937,206.1406 221.2655,204.5 Q219.953,202.8438 219.953,199.7188 Q219.953,196.5938 221.2655,194.9375 Q222.5937,193.2813 225.0937,193.2813 Q225.7968,193.2813 226.4374,193.4375 Q227.0937,193.5938 227.6562,193.8906 L227.6562,196.6094 Q227.0312,196.0313 226.4374,195.7656 Q225.8437,195.4844 225.2187,195.4844 Q223.8749,195.4844 223.1874,196.5625 Q222.4999,197.625 222.4999,199.7188 Q222.4999,201.8125 223.1874,202.8906 Q223.8749,203.9531 225.2187,203.9531 Q225.8437,203.9531 226.4374,203.6875 Q227.0312,203.4063 227.6562,202.8281 L227.6562,205.5469 Z "/><text fill="#000000" font-family="sans-serif" font-size="12" lengthAdjust="spacingAndGlyphs" textLength="54" x="238.6874" y="204.0605">Planning</text><line style="stroke: #A80036; stroke-width: 1.5;" x1="210.6874" x2="294.6874" y1="215.9063" y2="215.9063"/><line style="stroke: #A80036; stroke-width: 1.5;" x1="210.6874" x2="294.6874" y1="223.9063" y2="223.9063"/><!--MD5=[1fe0ef3184173912a5f2544135b810be]
class tache--><rect fill="#FEFECE" height="48" id="tache" style="stroke: #A80036; stroke-width: 1.5;" width="70" x="56.1874" y="215.9063"/><ellipse cx="71.1874" cy="231.9063" fill="#ADD1B2" rx="11" ry="11" style="stroke: #A80036; stroke-width: 1.0;"/><path d="M74.1562,237.5469 Q73.578,237.8438 72.9374,237.9844 Q72.2968,238.1406 71.5937,238.1406 Q69.0937,238.1406 67.7655,236.5 Q66.453,234.8438 66.453,231.7188 Q66.453,228.5938 67.7655,226.9375 Q69.0937,225.2813 71.5937,225.2813 Q72.2968,225.2813 72.9374,225.4375 Q73.5937,225.5938 74.1562,225.8906 L74.1562,228.6094 Q73.5312,228.0313 72.9374,227.7656 Q72.3437,227.4844 71.7187,227.4844 Q70.3749,227.4844 69.6874,228.5625 Q68.9999,229.625 68.9999,231.7188 Q68.9999,233.8125 69.6874,234.8906 Q70.3749,235.9531 71.7187,235.9531 Q72.3437,235.9531 72.9374,235.6875 Q73.5312,235.4063 74.1562,234.8281 L74.1562,237.5469 Z "/><text fill="#000000" font-family="sans-serif" font-size="12" lengthAdjust="spacingAndGlyphs" textLength="38" x="85.1874" y="236.0605">Tache</text><line style="stroke: #A80036; stroke-width: 1.5;" x1="57.1874" x2="125.1874" y1="247.9063" y2="247.9063"/><line style="stroke: #A80036; stroke-width: 1.5;" x1="57.1874" x2="125.1874" y1="255.9063" y2="255.9063"/><!--MD5=[e16f396b991fd52d28c07869163d916f]
class demande--><rect fill="#FEFECE" height="48" id="demande" style="stroke: #A80036; stroke-width: 1.5;" width="92" x="45.1874" y="49.9063"/><ellipse cx="60.1874" cy="65.9063" fill="#ADD1B2" rx="11" ry="11" style="stroke: #A80036; stroke-width: 1.0;"/><path d="M63.1562,71.5469 Q62.578,71.8438 61.9374,71.9844 Q61.2968,72.1406 60.5937,72.1406 Q58.0937,72.1406 56.7655,70.5 Q55.453,68.8438 55.453,65.7188 Q55.453,62.5938 56.7655,60.9375 Q58.0937,59.2813 60.5937,59.2813 Q61.2968,59.2813 61.9374,59.4375 Q62.5937,59.5938 63.1562,59.8906 L63.1562,62.6094 Q62.5312,62.0313 61.9374,61.7656 Q61.3437,61.4844 60.7187,61.4844 Q59.3749,61.4844 58.6874,62.5625 Q57.9999,63.625 57.9999,65.7188 Q57.9999,67.8125 58.6874,68.8906 Q59.3749,69.9531 60.7187,69.9531 Q61.3437,69.9531 61.9374,69.6875 Q62.5312,69.4063 63.1562,68.8281 L63.1562,71.5469 Z "/><text fill="#000000" font-family="sans-serif" font-size="12" lengthAdjust="spacingAndGlyphs" textLength="60" x="74.1874" y="70.0605">Demande</text><line style="stroke: #A80036; stroke-width: 1.5;" x1="46.1874" x2="136.1874" y1="81.9063" y2="81.9063"/><line style="stroke: #A80036; stroke-width: 1.5;" x1="46.1874" x2="136.1874" y1="89.9063" y2="89.9063"/><!--MD5=[4e6c796a8c4768257c6a240e3e0a7d54]
class question--><rect fill="#FEFECE" height="48" id="question" style="stroke: #A80036; stroke-width: 1.5;" width="88" x="47.1874" y="426.9063"/><ellipse cx="62.1874" cy="442.9063" fill="#ADD1B2" rx="11" ry="11" style="stroke: #A80036; stroke-width: 1.0;"/><path d="M65.1562,448.5469 Q64.578,448.8438 63.9374,448.9844 Q63.2968,449.1406 62.5937,449.1406 Q60.0937,449.1406 58.7655,447.5 Q57.453,445.8438 57.453,442.7188 Q57.453,439.5938 58.7655,437.9375 Q60.0937,436.2813 62.5937,436.2813 Q63.2968,436.2813 63.9374,436.4375 Q64.5937,436.5938 65.1562,436.8906 L65.1562,439.6094 Q64.5312,439.0313 63.9374,438.7656 Q63.3437,438.4844 62.7187,438.4844 Q61.3749,438.4844 60.6874,439.5625 Q59.9999,440.625 59.9999,442.7188 Q59.9999,444.8125 60.6874,445.8906 Q61.3749,446.9531 62.7187,446.9531 Q63.3437,446.9531 63.9374,446.6875 Q64.5312,446.4063 65.1562,445.8281 L65.1562,448.5469 Z "/><text fill="#000000" font-family="sans-serif" font-size="12" lengthAdjust="spacingAndGlyphs" textLength="56" x="76.1874" y="447.0605">Question</text><line style="stroke: #A80036; stroke-width: 1.5;" x1="48.1874" x2="134.1874" y1="458.9063" y2="458.9063"/><line style="stroke: #A80036; stroke-width: 1.5;" x1="48.1874" x2="134.1874" y1="466.9063" y2="466.9063"/><!--MD5=[c8bec522c61b41c454430c3d8ae9626b]
class sms--><rect fill="#FEFECE" height="48" id="sms" style="stroke: #A80036; stroke-width: 1.5;" width="104" x="39.1874" y="509.9063"/><ellipse cx="54.1874" cy="525.9063" fill="#ADD1B2" rx="11" ry="11" style="stroke: #A80036; stroke-width: 1.0;"/><path d="M57.1562,531.5469 Q56.578,531.8438 55.9374,531.9844 Q55.2968,532.1406 54.5937,532.1406 Q52.0937,532.1406 50.7655,530.5 Q49.453,528.8438 49.453,525.7188 Q49.453,522.5938 50.7655,520.9375 Q52.0937,519.2813 54.5937,519.2813 Q55.2968,519.2813 55.9374,519.4375 Q56.5937,519.5938 57.1562,519.8906 L57.1562,522.6094 Q56.5312,522.0313 55.9374,521.7656 Q55.3437,521.4844 54.7187,521.4844 Q53.3749,521.4844 52.6874,522.5625 Q51.9999,523.625 51.9999,525.7188 Q51.9999,527.8125 52.6874,528.8906 Q53.3749,529.9531 54.7187,529.9531 Q55.3437,529.9531 55.9374,529.6875 Q56.5312,529.4063 57.1562,528.8281 L57.1562,531.5469 Z "/><text fill="#000000" font-family="sans-serif" font-size="12" lengthAdjust="spacingAndGlyphs" textLength="72" x="68.1874" y="530.0605">SMSGroupe</text><line style="stroke: #A80036; stroke-width: 1.5;" x1="40.1874" x2="142.1874" y1="541.9063" y2="541.9063"/><line style="stroke: #A80036; stroke-width: 1.5;" x1="40.1874" x2="142.1874" y1="549.9063" y2="549.9063"/><!--MD5=[07a51acc383ff84b34fdd503874019db]
link evenement to planning--><path d="M142.1977,169.5855 C153.9197,172.7435 166.2875,176.2722 177.6874,179.9063 C188.0162,183.1989 199.0135,187.0844 209.313,190.8959 " fill="none" id="evenement-planning" style="stroke: #A80036; stroke-width: 1.0;"/><text fill="#000000" font-family="sans-serif" font-size="13" lengthAdjust="spacingAndGlyphs" textLength="8" x="150.2773" y="184.6259">1</text><text fill="#000000" font-family="sans-serif" font-size="13" lengthAdjust="spacingAndGlyphs" textLength="24" x="177.526" y="201.6348">0..1</text><!--MD5=[bdfc4623f24f7f83c4854dbce103c45d]
link evenement to adherent--><path d="M126.0359,181.0749 C133.0678,186.3839 140.2669,192.1468 146.6874,197.9063 C179.027,226.9162 212.3483,264.5856 232.7916,288.7581 " fill="none" id="evenement-adherent" style="stroke: #A80036; stroke-width: 1.0;"/><text fill="#000000" font-family="sans-serif" font-size="13" lengthAdjust="spacingAndGlyphs" textLength="8" x="125.5552" y="200.8773">1</text><text fill="#000000" font-family="sans-serif" font-size="13" lengthAdjust="spacingAndGlyphs" textLength="23" x="201.7464" y="277.7321">0..*</text><!--MD5=[02e150ab4f2d07466a12eb5141991abf]
link tache to planning--><path d="M126.2305,232.9628 C150.7219,228.11 183.5775,221.5999 209.6603,216.4318 " fill="none" id="tache-planning" style="stroke: #A80036; stroke-width: 1.0;"/><text fill="#000000" font-family="sans-serif" font-size="13" lengthAdjust="spacingAndGlyphs" textLength="23" x="134.2301" y="245.1367">1..*</text><text fill="#000000" font-family="sans-serif" font-size="13" lengthAdjust="spacingAndGlyphs" textLength="8" x="193.5775" y="231.2644">1</text><!--MD5=[41ee2e49fdd965d79f5fc8033511b994]
link tache to adherent--><path d="M126.2305,255.7462 C150.0725,266.5231 181.841,280.8829 207.5715,292.5134 " fill="none" id="tache-adherent" style="stroke: #A80036; stroke-width: 1.0;"/><text fill="#000000" font-family="sans-serif" font-size="13" lengthAdjust="spacingAndGlyphs" textLength="23" x="134.2301" y="271.836">0..*</text><text fill="#000000" font-family="sans-serif" font-size="13" lengthAdjust="spacingAndGlyphs" textLength="23" x="176.6099" y="302.7765">0..*</text><!--MD5=[919082af5c1fc675ba5e1b1a99ee3fa1]
link role to adherent--><path d="M120.809,357.8185 C145.0314,349.5693 179.6809,337.7692 207.3851,328.3343 " fill="none" id="role-adherent" style="stroke: #A80036; stroke-width: 1.0;"/><text fill="#000000" font-family="sans-serif" font-size="13" lengthAdjust="spacingAndGlyphs" textLength="24" x="128.7431" y="369.4047">0..1</text><text fill="#000000" font-family="sans-serif" font-size="13" lengthAdjust="spacingAndGlyphs" textLength="23" x="176.7523" y="343.491">0..*</text><!--MD5=[0fc5cb4327272be023087cbfd0edb728]
link question to adherent--><path d="M124.136,426.726 C131.6469,421.007 139.5226,414.8422 146.6874,408.9063 C174.9836,385.4632 205.9905,357.0403 227.1165,337.2308 " fill="none" id="question-adherent" style="stroke: #A80036; stroke-width: 1.0;"/><text fill="#000000" font-family="sans-serif" font-size="13" lengthAdjust="spacingAndGlyphs" textLength="23" x="106.6322" y="415.6918">0..*</text><text fill="#000000" font-family="sans-serif" font-size="13" lengthAdjust="spacingAndGlyphs" textLength="8" x="211.9086" y="357.0711">1</text><!--MD5=[9347a5afff22fa2fcc51cdfc08eed535]
link sms to adherent--><path d="M127.2967,509.8327 C134.1603,504.3866 140.9737,498.3061 146.6874,491.9063 C190.3439,443.0073 225.3787,373.4696 242.0727,337.1378 " fill="none" id="sms-adherent" style="stroke: #A80036; stroke-width: 1.0;"/><text fill="#000000" font-family="sans-serif" font-size="13" lengthAdjust="spacingAndGlyphs" textLength="23" x="110.6028" y="498.8258">1..*</text><text fill="#000000" font-family="sans-serif" font-size="13" lengthAdjust="spacingAndGlyphs" textLength="23" x="242.2885" y="356.9554">0..*</text><!--MD5=[c4ae423e58ca3d2a30f9e3af16391ade]
link role to role--><path d="M76.7985,343.6644 C72.1138,326.2515 76.91,308.9063 91.1874,308.9063 C105.4647,308.9063 110.261,326.2515 105.5763,343.6644 " fill="none" id="role-role" style="stroke: #A80036; stroke-width: 1.0;"/><text fill="#000000" font-family="sans-serif" font-size="13" lengthAdjust="spacingAndGlyphs" textLength="35" x="73.6874" y="299.9731">dirige</text><text fill="#000000" font-family="sans-serif" font-size="13" lengthAdjust="spacingAndGlyphs" textLength="23" x="47.4881" y="333.0103">0..*</text><text fill="#000000" font-family="sans-serif" font-size="13" lengthAdjust="spacingAndGlyphs" textLength="24" x="82.1586" y="333.0103">0..1</text><!--MD5=[5f87137ff4904f1a6423c903c26001a6]
link demande to evenement--><path d="M91.1874,98.205 C91.1874,109.6666 91.1874,121.1282 91.1874,132.5898 " fill="none" id="demande-evenement" style="stroke: #A80036; stroke-width: 1.0;"/><text fill="#000000" font-family="sans-serif" font-size="13" lengthAdjust="spacingAndGlyphs" textLength="23" x="65.3843" y="118.039">0..*</text><text fill="#000000" font-family="sans-serif" font-size="13" lengthAdjust="spacingAndGlyphs" textLength="8" x="82.2124" y="121.9177">1</text><!--MD5=[bd528169a55dad4077054ddd860348c5]
link adherent to demande--><path d="M234.0568,288.6874 C225.4898,277.0021 215.5163,262.5796 207.6874,248.9063 C175.1732,192.1197 187.8771,165.7519 146.6874,114.9063 C141.7105,108.7627 135.611,103.0617 129.2983,97.9836 " fill="none" id="adherent-demande" style="stroke: #A80036; stroke-width: 1.0;"/><text fill="#000000" font-family="sans-serif" font-size="13" lengthAdjust="spacingAndGlyphs" textLength="23" x="232.2296" y="277.6433">0..*</text><text fill="#000000" font-family="sans-serif" font-size="13" lengthAdjust="spacingAndGlyphs" textLength="8" x="130.0392" y="118.1591">1</text><!--MD5=[1adca5b99586d0fc19cdc9e570795c0a]
link type to materiel--><path d="M91.1874,641.205 C91.1874,652.6666 91.1874,664.1283 91.1874,675.5899 " fill="none" id="type-materiel" style="stroke: #A80036; stroke-width: 1.0;"/><text fill="#000000" font-family="sans-serif" font-size="13" lengthAdjust="spacingAndGlyphs" textLength="23" x="65.3843" y="661.039">0..*</text><text fill="#000000" font-family="sans-serif" font-size="13" lengthAdjust="spacingAndGlyphs" textLength="8" x="82.2124" y="664.9177">1</text><!--MD5=[e88a811d6f6f5cc46a29f473b233982d]
link demande to materiel--><path d="M48.0812,97.982 C36.5265,107.02 25.8192,118.5338 20.6874,132.4063 C1.1042,185.3447 1.1042,587.4679 20.6874,640.4063 C26.133,655.1271 37.7407,667.2967 49.9947,676.7112 " fill="none" id="demande-materiel" style="stroke: #A80036; stroke-width: 1.0;"/><text fill="#000000" font-family="sans-serif" font-size="13" lengthAdjust="spacingAndGlyphs" textLength="8" x="29.1879" y="117.3662">1</text><text fill="#000000" font-family="sans-serif" font-size="13" lengthAdjust="spacingAndGlyphs" textLength="23" x="19.2555" y="686.4826">0..*</text><!--MD5=[783480e973fb54a74bb1446677024827]
@startuml
title DCP - Cahier des charges\n MOA : <b>obde</b> / MOE : <b>teamflat</b>
left to right direction
skinparam shadowing false

class "Role" as role
class "Adherent" as adherent
class "Materiel" as materiel
class "TypeMateriel" as type
class "Evenement" as evenement
class "Planning" as planning
class "Tache" as tache
class "Demande" as demande
class "Question" as question
class "SMSGroupe" as sms

evenement "1" - - "0..1" planning
evenement "1" - - "0..*" adherent
tache "1..*" - - "1" planning
tache "0..*" - - "0..*" adherent
role "0..1" - - "0..*" adherent
question "0..*" - - "1" adherent
sms "1..*" - - "0..*" adherent
role "0..*" - - "0..1" role : dirige
demande "0..*" - "1" evenement
adherent "0..*" - "1" demande
type "0..*" - "1" materiel
demande "1" - "0..*" materiel

@enduml

PlantUML version 1.2020.06(Sun Apr 05 12:38:32 GMT 2020)
(GPL source distribution)
Java Runtime: OpenJDK Runtime Environment
JVM: OpenJDK 64-Bit Server VM
Java Version: 14-ea+33
Operating System: Linux
Default Encoding: UTF-8
Language: en
Country: US
--></g></svg>